<svg width="60" height="75" viewBox="0 0 60 75" fill="none" xmlns="http://www.w3.org/2000/svg">
<path d="M51 39C53.3869 39 55.6761 39.9482 57.364 41.636C59.0518 43.3239 60 45.6131 60 48H30V54H59.76C59.442 56.04 58.794 58.068 57.84 60H30V66H53.574C48.438 71.298 40.386 75 30 75C11.16 75 0 62.826 0 51V48C0 45.6131 0.948212 43.3239 2.63604 41.636C4.32387 39.9482 6.61305 39 9 39H51Z" fill="white"/>
<path d="M46.2294 13.5C46.593 15.4835 46.593 17.5165 46.2294 19.5H29.9994V25.5H43.8294C41.8893 28.4812 39.0377 30.7556 35.6997 31.9843C32.3618 33.213 28.7161 33.3301 25.3062 32.3182C21.8962 31.3064 18.9045 29.2197 16.777 26.3691C14.6495 23.5186 13.5001 20.0569 13.5001 16.5C13.5001 12.9431 14.6495 9.48138 16.777 6.63086C18.9045 3.78034 21.8962 1.69364 25.3062 0.681757C28.7161 -0.330123 32.3618 -0.212995 35.6997 1.01568C39.0377 2.24436 41.8893 4.5188 43.8294 7.5H29.9994V13.5H46.2294Z" fill="white"/>
</svg>
