<svg width="10" height="9" viewBox="0 0 10 9" fill="none" xmlns="http://www.w3.org/2000/svg">
<path fill-rule="evenodd" clip-rule="evenodd" d="M3.32833 8.5657L0.146351 5.03935C-0.0489111 4.82296 -0.0489111 4.47211 0.146351 4.25572L3.32833 0.729366C3.52359 0.512972 3.84018 0.512972 4.03544 0.729366C4.2307 0.945761 4.2307 1.29661 4.03544 1.513L1.20701 4.64753L4.03544 7.78207C4.2307 7.99846 4.2307 8.34931 4.03544 8.5657C3.84018 8.7821 3.52359 8.7821 3.32833 8.5657Z" fill="black"/>
<path fill-rule="evenodd" clip-rule="evenodd" d="M8.32833 8.5657L5.14635 5.03935C4.95109 4.82296 4.95109 4.47211 5.14635 4.25572L8.32833 0.729366C8.52359 0.512972 8.84018 0.512972 9.03544 0.729366C9.2307 0.945761 9.2307 1.29661 9.03544 1.513L6.20701 4.64753L9.03544 7.78207C9.2307 7.99846 9.2307 8.34931 9.03544 8.5657C8.84018 8.7821 8.52359 8.7821 8.32833 8.5657Z" fill="black"/>
</svg>
