<svg width="29" height="29" viewBox="0 0 29 29" fill="none" xmlns="http://www.w3.org/2000/svg">
<g clip-path="url(#clip0)">
<path d="M20.3872 6.24323C19.0163 4.87232 16.7856 4.87232 15.4147 6.24323L7.07205 14.5859C5.24418 16.4138 5.24418 19.388 7.07205 21.2158C8.89993 23.0437 11.8741 23.0437 13.702 21.2158L22.0447 12.8732L21.2159 12.0444L12.8733 20.3871C11.5023 21.758 9.2717 21.758 7.90079 20.3871C6.52989 19.0162 6.52989 16.7856 7.90079 15.4147L16.2435 7.07197C17.1574 6.15803 18.6445 6.15803 19.5584 7.07197C20.4724 7.98591 20.4724 9.473 19.5584 10.3869L12.8733 17.0721C12.4163 17.5291 11.6727 17.5291 11.2158 17.0721C10.7588 16.6152 10.7588 15.8716 11.2158 15.4146L17.901 8.72946L17.0722 7.90071L10.387 14.5859C9.47309 15.4998 9.47309 16.9869 10.387 17.9009C11.301 18.8148 12.7881 18.8148 13.702 17.9009L20.3872 11.2157C21.7581 9.84478 21.7581 7.61413 20.3872 6.24323Z" fill="#FF7754"/>
</g>
<defs>
<clipPath id="clip0">
<rect width="20.0025" height="20.0025" fill="white" transform="matrix(0.707107 0.707107 0.707107 -0.707107 0 14.1439)"/>
</clipPath>
</defs>
</svg>
