<svg width="12" height="17" viewBox="0 0 12 17" fill="none" xmlns="http://www.w3.org/2000/svg">
<path d="M9.42881 16.92C9.20868 16.9205 8.99118 16.8829 8.79229 16.8097C8.5934 16.7365 8.41818 16.6297 8.2795 16.4971L1.16259 9.64065C0.94587 9.43618 0.827393 9.1797 0.827393 8.91501C0.827393 8.65032 0.94587 8.39384 1.16259 8.18936L8.52999 1.33286C8.7801 1.0995 9.13949 0.952739 9.52912 0.924879C9.91875 0.89702 10.3067 0.990339 10.6076 1.18431C10.9085 1.37828 11.0977 1.65701 11.1337 1.95918V5.43995V8.92072C11.1337 8.92072 11.1399 15.52 11.1399 15.92C11.1399 16.42 10.5092 16.8111 10.2024 16.92C9.96353 17.0356 9.7103 16.9225 9.42881 16.92Z" fill="white"/>
</svg>
