<svg width="47" height="56" viewBox="0 0 47 56" fill="none" xmlns="http://www.w3.org/2000/svg">
<path d="M3.05707 16.749C4.10422 6.03927 5.26356 2.35662 14.8375 2.35662H18.9887V17.9335H26.0944V34.7441H18.9887V46.1351C18.9887 52.373 17.6798 53.3125 11.2473 53.5379V55.0786C13.6782 54.9283 17.979 54.8532 22.5789 54.8532C26.7301 54.8532 31.1431 54.9283 33.8358 55.0786V53.5379C27.4033 53.3125 26.0944 52.373 26.0944 46.1351V34.7441V2.35662H30.2456C39.8195 2.35662 40.9415 6.03927 42.026 16.749H43.7837C43.6341 15.1332 43.5593 12.9161 43.5593 10.4359C43.5593 8.51942 43.7089 4.49857 44.0829 0.590454C37.7252 0.815922 28.8618 0.815922 22.5789 0.815922C16.296 0.815922 7.32046 0.815922 0.962769 0.590454C1.37415 4.49857 1.52374 8.51942 1.52374 10.4359C1.52374 12.9161 1.44895 15.1332 1.29935 16.749H3.05707Z" fill="#1E1E1E"/>
<path d="M7.27554 24.0478H4.20225V31.9505H3.07329V24.0478H0L0 23.0443H7.27554V24.0478Z" fill="#1E1E1E"/>
<path d="M10.4225 23.0443H11.3759L15.0136 31.9505H13.8094L12.7557 29.3414H9.0176L7.97644 31.9505H6.77221L10.4225 23.0443ZM12.5048 28.4633L10.8992 24.3488L9.24339 28.4633H12.5048Z" fill="#1E1E1E"/>
<path d="M16.2023 31.9505V23.0443H17.3313V30.947H22.2987V31.9505H16.2023Z" fill="#1E1E1E"/>
<path d="M23.5278 31.9505V23.0568H24.6568V27.9741L29.2479 23.0443H30.4647L26.8896 26.9706L30.6654 31.9505H29.4361L26.1997 27.6228L24.6568 29.2285V31.9505H23.5278Z" fill="#1E1E1E"/>
<path d="M37.7571 30.947V31.9505H31.7108V23.0443H37.6442V24.0478H32.8398V26.9329H37.017V27.8737H32.8398V30.947H37.7571Z" fill="#1E1E1E"/>
<path d="M39.3059 31.9505V23.0443H43.1193C43.5123 23.0443 43.8719 23.1279 44.198 23.2951C44.5326 23.454 44.8169 23.6715 45.051 23.9474C45.2936 24.215 45.4817 24.5203 45.6155 24.8632C45.7493 25.1977 45.8162 25.5405 45.8162 25.8918C45.8162 26.2012 45.7702 26.5022 45.6782 26.7949C45.5946 27.0793 45.4692 27.3385 45.3019 27.5727C45.143 27.8068 44.9465 28.0075 44.7123 28.1748C44.4866 28.342 44.2315 28.4633 43.9472 28.5386L46.1047 31.9505H44.8252L42.7931 28.7518H40.4348V31.9505H39.3059ZM40.4348 27.7483H43.1318C43.366 27.7483 43.575 27.6981 43.759 27.5978C43.9513 27.4974 44.1144 27.3636 44.2482 27.1963C44.382 27.0207 44.4866 26.82 44.5618 26.5942C44.6371 26.3684 44.6747 26.1343 44.6747 25.8918C44.6747 25.6409 44.6287 25.4067 44.5367 25.1893C44.4531 24.9635 44.336 24.767 44.1855 24.5997C44.0433 24.4241 43.8719 24.2903 43.6712 24.1983C43.4789 24.098 43.274 24.0478 43.0565 24.0478H40.4348V27.7483Z" fill="#1E1E1E"/>
</svg>
