<svg width="21" height="20" viewBox="0 0 21 20" fill="none" xmlns="http://www.w3.org/2000/svg">
<path d="M3.69578 17.0742C7.59761 20.9753 13.9431 20.9753 17.8449 17.0742C21.7451 13.1731 21.7451 6.82584 17.8449 2.92475C15.894 0.974619 13.332 2.69785e-07 10.7699 2.69785e-07C8.20785 2.69785e-07 5.64669 0.974658 3.69578 2.92475C-0.205232 6.8258 -0.205232 13.1731 3.69578 17.0742ZM6.64384 7.05177C6.31786 6.72579 6.31786 6.19886 6.64384 5.87288C6.80641 5.7103 7.01983 5.62858 7.23329 5.62858C7.44671 5.62858 7.66017 5.7103 7.82275 5.87288L10.77 8.821L13.7163 5.87374C13.8797 5.71116 14.0932 5.62944 14.3058 5.62944C14.5192 5.62944 14.7327 5.71116 14.8952 5.87374C15.2212 6.19972 15.2212 6.72747 14.8952 7.05263L11.9489 9.9999L14.8961 12.9472C15.222 13.2731 15.222 13.8009 14.8961 14.1261C14.5709 14.452 14.0432 14.452 13.7172 14.1261L10.77 11.1788L7.82279 14.1261C7.49682 14.452 6.96989 14.452 6.64392 14.1261C6.31794 13.8009 6.31794 13.2731 6.64392 12.9472L9.59112 9.9999L6.64384 7.05177Z" fill="#B1B1B1"/>
</svg>
