<svg width="16" height="17" viewBox="0 0 16 17" fill="none" xmlns="http://www.w3.org/2000/svg">
<path d="M8 0.579956C3.86452 0.579956 0.5 4.16868 0.5 8.57991C0.5 12.9911 3.86452 16.58 8 16.58C12.1355 16.58 15.5 12.9911 15.5 8.57991C15.5 4.16868 12.1356 0.579956 8 0.579956ZM12.3066 7.22865L7.59476 12.2546C7.39442 12.4683 7.12809 12.5859 6.84479 12.5859C6.56148 12.5859 6.29516 12.4683 6.09481 12.2546L3.69337 9.69309C3.49302 9.47939 3.38267 9.19531 3.38267 8.89312C3.38267 8.59085 3.49302 8.30677 3.69337 8.09307C3.89364 7.87937 4.15996 7.76166 4.44334 7.76166C4.72665 7.76166 4.99305 7.87937 5.19332 8.09315L6.84471 9.85454L10.8065 5.62863C11.0069 5.41493 11.2732 5.2973 11.5565 5.2973C11.8398 5.2973 12.1061 5.41493 12.3065 5.62863C12.7202 6.06989 12.7202 6.78756 12.3066 7.22865Z" fill="white"/>
</svg>
