<svg width="16" height="17" viewBox="0 0 16 17" fill="none" xmlns="http://www.w3.org/2000/svg">
<path d="M8.32764 0.420044C4.1855 0.420044 0.827637 4.00176 0.827637 8.42004C0.827637 12.8383 4.1855 16.42 8.32764 16.42C12.4698 16.42 15.8276 12.8383 15.8276 8.42004C15.8276 4.00176 12.4698 0.420044 8.32764 0.420044ZM6.5387 3.36535H11.4697V5.6593L11.7783 5.33118L13.3081 6.96203L9.69544 10.8165L7.43042 11.6017L8.16559 9.1847L10.6412 6.54407V4.24426H7.14295V5.82727H5.58289V12.5958H10.6412V11.1368L11.4697 10.2521V13.4747H4.75341V5.20422L6.5387 3.36535ZM8.54827 9.59192L8.18024 10.8009L9.31275 10.4083L8.54827 9.59192Z" fill="white"/>
</svg>
