<svg width="14" height="14" viewBox="0 0 14 14" fill="none" xmlns="http://www.w3.org/2000/svg">
<path d="M6.06173 7.65415H4.23466C4.19877 7.65415 4.16434 7.66655 4.13896 7.68861C4.11358 7.71067 4.09932 7.7406 4.09932 7.7718V8.47768C4.09932 8.50888 4.11358 8.53881 4.13896 8.56087C4.16434 8.58293 4.19877 8.59533 4.23466 8.59533H6.06173V10.1836C6.06173 10.2148 6.07599 10.2447 6.10137 10.2668C6.12675 10.2888 6.16117 10.3012 6.19707 10.3012H7.0091C7.04499 10.3012 7.07941 10.2888 7.10479 10.2668C7.13018 10.2447 7.14443 10.2148 7.14443 10.1836V8.59533H8.9715C9.0074 8.59533 9.04182 8.58293 9.0672 8.56087C9.09258 8.53881 9.10684 8.50888 9.10684 8.47768V7.7718C9.10684 7.7406 9.09258 7.71067 9.0672 7.68861C9.04182 7.66655 9.0074 7.65415 8.9715 7.65415H7.14443V6.06592C7.14443 6.03472 7.13018 6.00479 7.10479 5.98273C7.07941 5.96067 7.04499 5.94827 7.0091 5.94827H6.19707C6.16117 5.94827 6.12675 5.96067 6.10137 5.98273C6.07599 6.00479 6.06173 6.03472 6.06173 6.06592V7.65415ZM12.3989 3.37033C12.5004 3.45857 12.558 3.57768 12.558 3.70268V12.7718C12.558 13.0321 12.3161 13.2424 12.0166 13.2424H1.18955C0.890111 13.2424 0.648193 13.0321 0.648193 12.7718V0.536506C0.648193 0.276212 0.890111 0.065918 1.18955 0.065918H8.37432C8.51812 0.065918 8.65684 0.115918 8.75834 0.204153L12.3989 3.37033V3.37033ZM11.3095 3.91886L8.12564 1.15121V3.91886H11.3095Z" fill="#1E1E1E"/>
</svg>
