<svg width="15" height="13" viewBox="0 0 15 13" fill="none" xmlns="http://www.w3.org/2000/svg">
<path fill-rule="evenodd" clip-rule="evenodd" d="M13.9253 13L8.75025 8.00002L9.46941 7.30518L14.6444 12.3052L13.9253 13Z" fill="#B1B1B1"/>
<path fill-rule="evenodd" clip-rule="evenodd" d="M5.64497 9C7.98346 9 9.81997 7.17699 9.81997 5C9.81997 2.82301 7.98346 1 5.64497 1C3.30648 1 1.46997 2.82301 1.46997 5C1.46997 7.17699 3.30648 9 5.64497 9ZM5.64497 10C8.50304 10 10.82 7.76142 10.82 5C10.82 2.23858 8.50304 0 5.64497 0C2.7869 0 0.469971 2.23858 0.469971 5C0.469971 7.76142 2.7869 10 5.64497 10Z" fill="#B1B1B1"/>
</svg>
