<svg width="14" height="15" viewBox="0 0 14 15" fill="none" xmlns="http://www.w3.org/2000/svg">
<path d="M7 10.3444C8.5464 10.3444 9.8 9.0212 9.8 7.38889C9.8 5.75658 8.5464 4.43333 7 4.43333C5.4536 4.43333 4.2 5.75658 4.2 7.38889C4.2 9.0212 5.4536 10.3444 7 10.3444Z" fill="#1E1E1E"/>
<path d="M7.7 1.52876V0H6.3V1.52876C5.06821 1.69478 3.92348 2.28773 3.0454 3.21459C2.16732 4.14145 1.60558 5.34978 1.4483 6.65H0V8.12778H1.4483C1.60535 9.4281 2.16702 10.6366 3.04514 11.5635C3.92326 12.4904 5.06812 13.0832 6.3 13.249V14.7778H7.7V13.249C8.93193 13.0834 10.0768 12.4905 10.955 11.5636C11.8331 10.6367 12.3948 9.42815 12.5517 8.12778H14V6.65H12.5517C12.3947 5.34968 11.833 4.14122 10.9549 3.21431C10.0767 2.28741 8.93188 1.69453 7.7 1.52876ZM7 11.8222C4.6837 11.8222 2.8 9.83387 2.8 7.38889C2.8 4.94391 4.6837 2.95556 7 2.95556C9.3163 2.95556 11.2 4.94391 11.2 7.38889C11.2 9.83387 9.3163 11.8222 7 11.8222Z" fill="#1E1E1E"/>
</svg>
