<svg width="14" height="15" viewBox="0 0 14 15" fill="none" xmlns="http://www.w3.org/2000/svg">
<path d="M11.3047 12.5138H1.37674V3.72947C1.37674 3.32685 1.09752 2.99744 0.756241 2.99744C0.414967 2.99744 0.135742 3.32685 0.135742 3.72947V12.5138C0.135742 13.319 0.694191 13.9778 1.37674 13.9778H11.3047C11.646 13.9778 11.9252 13.6484 11.9252 13.2458C11.9252 12.8432 11.646 12.5138 11.3047 12.5138Z" fill="#1E1E1E"/>
<path d="M12.5457 1.53339H8.20222L7.32732 0.501231C7.09153 0.223061 6.77508 0.0693359 6.44621 0.0693359H3.85873C3.17619 0.0693359 2.62394 0.728159 2.62394 1.53339L2.61774 9.58568C2.61774 10.3909 3.17619 11.0497 3.85873 11.0497H12.5457C13.2283 11.0497 13.7867 10.3909 13.7867 9.58568V2.99744C13.7867 2.19221 13.2283 1.53339 12.5457 1.53339ZM10.6842 8.12162H5.72023C5.66261 8.12162 5.60613 8.10269 5.55712 8.06696C5.50811 8.03122 5.4685 7.98009 5.44273 7.9193C5.41697 7.8585 5.40606 7.79044 5.41123 7.72274C5.41641 7.65504 5.43746 7.59038 5.47203 7.536L6.32832 6.19639C6.45242 5.99875 6.70062 5.99875 6.82472 6.19639L7.58173 7.3896L8.95923 5.21548C9.08333 5.01783 9.33153 5.01783 9.45563 5.21548L10.9324 7.536C10.967 7.59038 10.988 7.65504 10.9932 7.72274C10.9984 7.79044 10.9875 7.8585 10.9617 7.9193C10.9359 7.98009 10.8963 8.03122 10.8473 8.06696C10.7983 8.10269 10.7418 8.12162 10.6842 8.12162Z" fill="#1E1E1E"/>
</svg>
