<svg width="16" height="17" viewBox="0 0 16 17" fill="none" xmlns="http://www.w3.org/2000/svg">
<path d="M7.82739 0.919922C3.68194 0.919922 0.327393 4.4981 0.327393 8.91992C0.327393 13.3417 3.68194 16.9199 7.82739 16.9199C11.9728 16.9199 15.3274 13.3417 15.3274 8.91992C15.3274 4.4981 11.9728 0.919922 7.82739 0.919922ZM7.82739 14.7381C6.38076 14.7381 4.99337 14.1251 3.97045 13.034C2.94752 11.9429 2.37285 10.463 2.37285 8.91992C2.37285 7.37684 2.94752 5.89697 3.97045 4.80585C4.99337 3.71473 6.38076 3.10174 7.82739 3.10174C9.27403 3.10174 10.6614 3.71473 11.6843 4.80585C12.7073 5.89697 13.2819 7.37684 13.2819 8.91992C13.2819 10.463 12.7073 11.9429 11.6843 13.034C10.6614 14.1251 9.27403 14.7381 7.82739 14.7381V14.7381ZM8.50921 10.0108C8.50921 10.469 8.78194 10.8836 9.19103 11.0363V13.2836H6.46376V8.85447C6.99557 8.6581 7.27512 8.04719 7.09785 7.46538C7.04552 7.31136 6.96135 7.17188 6.85158 7.05731C6.74181 6.94274 6.60925 6.85601 6.46376 6.80356V4.55629H9.19103V8.98538C8.78194 9.1381 8.50921 9.55265 8.50921 10.0108Z" fill="white"/>
</svg>
