<svg width="15" height="17" viewBox="0 0 15 17" fill="none" xmlns="http://www.w3.org/2000/svg">
<path d="M5.625 12.5H9.375V16.5H5.625V12.5Z" fill="white"/>
<path d="M14.2667 5.57556L10.2417 1.28222C9.77328 0.781982 9.13782 0.500622 8.475 0.5H5.83333V5.83333H10C10.221 5.83333 10.433 5.92698 10.5893 6.09368C10.7455 6.26038 10.8333 6.48647 10.8333 6.72222C10.8333 6.95797 10.7455 7.18406 10.5893 7.35076C10.433 7.51746 10.221 7.61111 10 7.61111H5C4.77899 7.61111 4.56703 7.51746 4.41074 7.35076C4.25446 7.18406 4.16667 6.95797 4.16667 6.72222V0.5H2.5C1.83696 0.5 1.20107 0.780952 0.732233 1.28105C0.263392 1.78115 0 2.45942 0 3.16667V13.8333C0 14.5406 0.263392 15.2189 0.732233 15.719C1.20107 16.219 1.83696 16.5 2.5 16.5H4.16667V12.9444C4.16667 12.4729 4.34226 12.0208 4.65482 11.6874C4.96738 11.354 5.39131 11.1667 5.83333 11.1667H9.16667C9.60869 11.1667 10.0326 11.354 10.3452 11.6874C10.6577 12.0208 10.8333 12.4729 10.8333 12.9444V16.5H12.5C13.163 16.5 13.7989 16.219 14.2678 15.719C14.7366 15.2189 15 14.5406 15 13.8333V7.46C14.9994 6.75299 14.7356 6.07517 14.2667 5.57556Z" fill="white"/>
</svg>
