<svg width="20" height="20" viewBox="0 0 20 20" fill="none" xmlns="http://www.w3.org/2000/svg">
<g clip-path="url(#clip0)">
<g clip-path="url(#clip1)">
<path d="M18.4136 14.8495C18.2755 14.764 18.0943 14.8067 18.0088 14.9449C17.1798 16.2846 16.0187 17.4047 14.6509 18.1839C13.2409 18.9873 11.6325 19.4119 9.99971 19.4119C6.53978 19.4119 3.36613 17.5199 1.7173 14.4741C1.63998 14.3313 1.46157 14.2781 1.31869 14.3555C1.17584 14.4328 1.12275 14.6112 1.20008 14.7541C2.9518 17.9899 6.32366 20.0001 9.99971 20.0001C11.7344 20.0001 13.4435 19.5488 14.9421 18.695C16.395 17.8672 17.6284 16.6774 18.5089 15.2544C18.5944 15.1162 18.5517 14.935 18.4136 14.8495Z" fill="#FF7754"/>
<path d="M1.20968 13.369C0.797265 12.2936 0.588156 11.1602 0.588156 10.0001C0.588156 7.85805 1.32758 5.76151 2.67019 4.09668C2.77217 3.97026 2.75233 3.78511 2.62588 3.68316C2.49947 3.58118 2.31431 3.60106 2.21237 3.72747C1.5107 4.59751 0.963987 5.5695 0.587411 6.61633C0.19766 7.69991 0 8.83839 0 10.0001C0 11.2324 0.222244 12.4368 0.660538 13.5796C0.705395 13.6966 0.816909 13.7684 0.935168 13.7684C0.970182 13.7684 1.00579 13.7621 1.04041 13.7488C1.19207 13.6907 1.26783 13.5207 1.20968 13.369Z" fill="#FF7754"/>
<path d="M17.0712 2.929C15.1825 1.04027 12.6712 6.10352e-05 10.0001 6.10352e-05C7.41139 6.10352e-05 4.956 0.985731 3.08633 2.77545C2.96901 2.88775 2.96494 3.07392 3.07723 3.19124C3.18953 3.30855 3.3757 3.31263 3.49302 3.20033C5.2527 1.51589 7.56369 0.588217 10.0001 0.588217C12.5142 0.588217 14.8777 1.56722 16.6553 3.34486C18.433 5.1225 19.412 7.48607 19.412 10C19.412 11.3495 19.1325 12.6522 18.5813 13.8719C18.5144 14.0199 18.5802 14.1941 18.7282 14.261C18.7675 14.2788 18.8086 14.2871 18.8491 14.2871C18.9611 14.2871 19.0681 14.2228 19.1173 14.1141C19.7031 12.8178 20.0002 11.4336 20.0002 10C20.0002 7.32895 18.96 4.81772 17.0712 2.929Z" fill="#FF7754"/>
<path d="M6.70816 11.8366C6.65111 11.6845 6.48152 11.6075 6.32954 11.6645C6.17749 11.7216 6.10044 11.8911 6.15749 12.0431C6.44631 12.813 6.95554 13.4715 7.63007 13.9474C8.32022 14.4342 9.13293 14.6916 9.98027 14.6916C10.8276 14.6916 11.6403 14.4342 12.3305 13.9474C13.005 13.4715 13.5142 12.813 13.803 12.0431C13.8601 11.8911 13.7831 11.7215 13.631 11.6645C13.479 11.6074 13.3094 11.6845 13.2524 11.8366C12.7437 13.1925 11.4287 14.1035 9.98027 14.1035C8.53179 14.1035 7.21684 13.1924 6.70816 11.8366Z" fill="#FF7754"/>
<path d="M6.45832 6.83765C5.47892 6.83765 4.68213 7.63444 4.68213 8.6138C4.68213 8.77621 4.8138 8.90788 4.97621 8.90788C5.13862 8.90788 5.27028 8.77621 5.27028 8.6138C5.27028 7.95871 5.80323 7.4258 6.45832 7.4258C7.11341 7.4258 7.64635 7.95875 7.64635 8.6138C7.64635 8.77621 7.77802 8.90788 7.94043 8.90788C8.10284 8.90788 8.23451 8.77621 8.23451 8.6138C8.23451 7.6344 7.43772 6.83765 6.45832 6.83765Z" fill="#FF7754"/>
<path d="M12.3538 8.6138C12.3538 7.95871 12.8867 7.4258 13.5418 7.4258C14.1969 7.4258 14.7298 7.95875 14.7298 8.6138C14.7298 8.77621 14.8615 8.90788 15.0239 8.90788C15.1863 8.90788 15.318 8.77621 15.318 8.6138C15.318 7.6344 14.5212 6.83765 13.5418 6.83765C12.5624 6.83765 11.7656 7.63444 11.7656 8.6138C11.7656 8.77621 11.8973 8.90788 12.0597 8.90788C12.2221 8.90788 12.3538 8.77621 12.3538 8.6138Z" fill="#FF7754"/>
<path d="M2.47819 9.76135C2.32472 9.70826 2.15725 9.78966 2.10412 9.94313L1.67053 11.1967C1.61744 11.3502 1.69884 11.5177 1.85231 11.5707C1.88415 11.5818 1.91658 11.587 1.94845 11.587C2.07032 11.587 2.18427 11.5106 2.22634 11.389L2.65993 10.1354C2.71306 9.98191 2.63166 9.81444 2.47819 9.76135Z" fill="#FF7754"/>
<path d="M3.30982 11.587C3.43169 11.587 3.54563 11.5106 3.58771 11.389L4.02129 10.1354C4.07438 9.98191 3.99298 9.81444 3.83951 9.76135C3.68597 9.70826 3.51854 9.78966 3.46545 9.94313L3.03186 11.1967C2.97877 11.3502 3.06017 11.5177 3.21364 11.5707C3.24548 11.5817 3.2779 11.587 3.30982 11.587Z" fill="#FF7754"/>
<path d="M16.2566 11.587C16.3785 11.587 16.4924 11.5106 16.5345 11.389L16.9681 10.1354C17.0211 9.98191 16.9397 9.81444 16.7863 9.76135C16.6328 9.70826 16.4653 9.78966 16.4122 9.94313L15.9786 11.1967C15.9255 11.3502 16.0069 11.5177 16.1604 11.5707C16.1923 11.5817 16.2247 11.587 16.2566 11.587Z" fill="#FF7754"/>
<path d="M17.6179 11.587C17.7398 11.587 17.8537 11.5106 17.8958 11.389L18.3294 10.1354C18.3825 9.98191 18.3011 9.81444 18.1476 9.76135C17.9942 9.70826 17.8267 9.78966 17.7736 9.94313L17.34 11.1967C17.2869 11.3502 17.3683 11.5177 17.5217 11.5707C17.5536 11.5817 17.586 11.587 17.6179 11.587Z" fill="#FF7754"/>
</g>
</g>
<defs>
<clipPath id="clip0">
<rect width="20" height="20" fill="white"/>
</clipPath>
<clipPath id="clip1">
<rect width="20" height="20" fill="white"/>
</clipPath>
</defs>
</svg>
