<svg width="15" height="17" viewBox="0 0 15 17" fill="none" xmlns="http://www.w3.org/2000/svg">
<path d="M5.97187 9.93769H8.7953V4.91557H10.9129L7.38359 0.730469L3.8543 4.91557H5.97187V9.93769ZM13.9749 11.22C13.8267 11.0325 12.8377 9.77782 12.5554 9.45054C12.3576 9.22564 12.094 9.10025 11.8199 9.10067H10.5797L12.7425 11.6067H10.2409C10.2069 11.606 10.1733 11.6159 10.1436 11.6354C10.1139 11.655 10.089 11.6835 10.0715 11.718L9.49551 13.2858H5.27166L4.69568 11.718C4.67808 11.6836 4.65319 11.6552 4.62347 11.6356C4.59375 11.6161 4.56025 11.6061 4.52627 11.6067H2.02471L4.18676 9.10067H2.94727C2.66705 9.10067 2.39953 9.23375 2.21177 9.45054C1.92942 9.77865 0.940517 11.0333 0.792287 11.22C0.447123 11.6561 0.257247 12.0035 0.347597 12.4328L0.743583 15.0058C0.833933 15.4361 1.23133 15.7893 1.62732 15.7893H13.1413C13.5373 15.7893 13.9347 15.4361 14.025 15.0058L14.421 12.4328C14.5099 12.0035 14.3208 11.6561 13.9749 11.22V11.22Z" fill="white"/>
</svg>
